<?xml version="1.0" standalone="no"?>
<!DOCTYPE svg PUBLIC "-//W3C//DTD SVG 20010904//EN"
 "http://www.w3.org/TR/2001/REC-SVG-20010904/DTD/svg10.dtd">
<svg version="1.0" xmlns="http://www.w3.org/2000/svg"
 width="1024.000000pt" height="1024.000000pt" viewBox="0 0 1024.000000 1024.000000"
 preserveAspectRatio="xMidYMid meet">

<g transform="translate(-230.00000,1320.000000) scale(0.145000,-0.145000)"
fill="#000000" stroke="none">
<path d="M7200 8525 c-78 -12 -174 -35 -248 -60 -18 -6 65 -91 401 -413 279
-267 314 -298 323 -289 3 3 17 61 31 129 23 105 26 150 27 308 1 239 -8 316
-37 325 -49 14 -402 14 -497 0z"/>
<path d="M6730 8406 c-221 -77 -374 -159 -564 -301 -138 -102 -229 -188 -356
-335 -225 -262 -365 -511 -455 -813 -18 -59 -30 -109 -26 -111 4 -3 38 11 77
29 100 48 212 69 295 56 165 -27 294 -137 349 -300 32 -97 25 -186 -26 -342
-5 -14 3 -15 63 -8 513 61 1006 374 1318 839 76 113 176 320 220 454 l36 109
-53 46 c-29 25 -126 115 -214 198 -89 84 -166 153 -171 153 -11 0 -203 -194
-203 -205 0 -5 18 -36 39 -69 117 -180 130 -322 47 -501 -85 -182 -232 -283
-438 -300 -131 -11 -268 38 -369 132 -25 24 -49 43 -53 43 -3 0 -50 -45 -104
-101 l-97 -101 -75 50 c-96 64 -159 89 -261 102 -45 5 -84 12 -87 15 -7 6 110
214 183 325 221 334 563 614 910 743 84 32 251 77 283 77 12 0 22 3 22 7 0 8
-149 153 -158 153 -4 0 -63 -20 -132 -44z"/>
<path d="M6560 7881 c-202 -41 -333 -258 -276 -456 21 -71 36 -96 95 -158 83
-87 208 -130 316 -109 177 36 302 175 313 348 15 236 -208 423 -448 375z m133
-172 c77 -21 147 -111 147 -189 0 -49 -30 -109 -73 -147 -106 -93 -262 -51
-314 85 -32 85 21 202 111 243 47 21 76 23 129 8z"/>
<path d="M5445 7859 c-169 -20 -399 -102 -539 -192 -99 -64 -212 -165 -279
-249 -78 -99 -118 -164 -95 -156 36 14 228 20 313 9 129 -16 198 -36 298 -86
48 -25 89 -45 91 -45 3 0 10 17 16 38 7 20 41 96 76 168 86 178 201 350 314
470 22 24 40 45 40 48 0 8 -152 5 -235 -5z"/>
<path d="M4390 7193 c-329 -92 -617 -321 -815 -646 -92 -152 -176 -408 -196
-598 -14 -137 -7 -365 16 -469 80 -377 275 -707 530 -901 225 -170 374 -227
1047 -398 153 -39 296 -78 318 -87 111 -45 129 -175 33 -238 -45 -29 -220 -70
-1008 -236 -429 -91 -557 -125 -649 -173 -96 -49 -190 -135 -249 -226 -56 -84
-75 -134 -88 -227 -18 -133 15 -226 90 -252 62 -22 133 36 146 117 11 68 36
120 82 171 85 95 94 98 703 225 679 141 1168 248 1240 271 93 29 136 55 205
123 68 67 107 128 134 209 64 191 21 375 -120 514 -101 100 -175 131 -524 223
-159 42 -373 98 -475 125 -102 27 -228 63 -279 80 -374 122 -635 431 -718 847
-23 119 -23 382 1 513 40 225 155 479 310 690 59 80 182 227 240 287 49 52 55
64 26 56z"/>
<path d="M4800 7029 c-127 -130 -320 -361 -393 -469 -90 -135 -142 -247 -180
-390 -27 -104 -30 -130 -31 -270 -1 -132 3 -166 22 -233 40 -141 109 -253 218
-357 156 -148 186 -160 979 -370 148 -40 306 -83 350 -97 246 -77 420 -225
524 -443 62 -130 75 -192 75 -355 0 -120 -4 -154 -26 -235 -96 -347 -336 -598
-683 -714 -106 -35 -177 -53 -525 -127 -162 -34 -299 -66 -304 -70 -10 -9 145
-88 233 -118 160 -55 379 -87 510 -76 358 32 661 166 891 394 179 178 297 387
366 650 32 119 44 369 24 503 -49 337 -268 686 -550 878 -143 97 -272 142
-758 264 -549 138 -624 164 -720 251 -110 99 -154 255 -118 417 18 81 75 209
128 286 57 85 199 252 254 300 50 44 54 50 54 92 0 25 7 85 15 135 8 49 11 93
7 97 -17 16 -230 118 -259 124 -29 6 -37 1 -103 -67z"/>
<path d="M5555 6756 c-76 -25 -130 -59 -192 -122 -105 -107 -173 -278 -212
-532 l-18 -124 35 7 c86 16 432 138 491 173 147 86 241 221 241 344 0 142
-100 249 -246 262 -37 4 -74 1 -99 -8z"/>
<path d="M6865 6379 c-160 -102 -405 -200 -603 -241 l-62 -13 36 -50 c46 -65
81 -133 112 -220 45 -130 40 -414 -10 -509 -9 -16 -7 -18 11 -13 66 17 181 97
276 192 209 209 320 466 332 768 3 77 2 137 -3 137 -5 0 -45 -23 -89 -51z"/>
<path d="M5916 6065 c-57 -110 -209 -223 -374 -280 -56 -19 -63 -24 -42 -28
230 -51 650 -140 680 -144 l39 -6 -5 39 c-17 119 -62 239 -122 326 -30 43
-130 148 -141 148 -3 0 -19 -25 -35 -55z"/>
<path d="M3505 4701 c-3 -6 -13 -34 -21 -62 -19 -63 -54 -120 -87 -142 -13 -9
-50 -24 -81 -34 -66 -22 -74 -34 -31 -47 128 -38 183 -96 209 -218 4 -18 13
-28 25 -28 14 0 20 10 25 47 7 56 46 124 86 153 16 12 52 29 79 38 28 9 52 21
53 26 2 6 -23 20 -54 32 -31 12 -70 31 -86 42 -33 24 -82 116 -82 153 0 29
-24 57 -35 40z"/>
<path d="M2997 4252 c-38 -42 -6 -112 51 -112 16 0 36 8 45 18 22 25 21 75 -1
95 -25 22 -75 21 -95 -1z"/>
<path d="M3900 4134 c-52 -13 -178 -41 -280 -63 -393 -85 -492 -118 -614 -205
-225 -161 -343 -438 -278 -653 34 -112 96 -157 172 -127 55 22 64 45 70 169 4
87 10 120 28 157 48 98 143 179 257 219 32 11 195 51 364 90 422 95 468 107
511 129 103 52 129 178 53 255 -61 61 -130 68 -283 29z"/>
<path d="M4549 3159 c-37 -14 -60 -63 -47 -101 14 -41 50 -62 92 -54 84 16 99
119 21 151 -19 8 -36 15 -37 14 -2 0 -15 -5 -29 -10z"/>
<path d="M4108 2870 c-39 -38 -40 -42 -36 -90 6 -58 33 -93 84 -110 86 -29
188 55 167 138 -16 66 -63 102 -134 102 -35 0 -47 -6 -81 -40z"/>

</g>
</svg>
